<?xml version="1.0" encoding="UTF-8" standalone="no"?>
<svg
   xmlns:dc="http://purl.org/dc/elements/1.1/"
   xmlns:cc="http://creativecommons.org/ns#"
   xmlns:rdf="http://www.w3.org/1999/02/22-rdf-syntax-ns#"
   xmlns:svg="http://www.w3.org/2000/svg"
   xmlns="http://www.w3.org/2000/svg"
   xmlns:sodipodi="http://sodipodi.sourceforge.net/DTD/sodipodi-0.dtd"
   xmlns:inkscape="http://www.inkscape.org/namespaces/inkscape"
   width="17"
   height="17"
   viewBox="0 0 17 17"
   fill="none"
   version="1.1"
   id="svg6"
   sodipodi:docname="close.svg"
   inkscape:version="1.0.1 (3bc2e813f5, 2020-09-07)">
  <metadata
     id="metadata12">
    <rdf:RDF>
      <cc:Work
         rdf:about="">
        <dc:format>image/svg+xml</dc:format>
        <dc:type
           rdf:resource="http://purl.org/dc/dcmitype/StillImage" />
      </cc:Work>
    </rdf:RDF>
  </metadata>
  <defs
     id="defs10" />
  <sodipodi:namedview
     pagecolor="#ffffff"
     bordercolor="#666666"
     borderopacity="1"
     objecttolerance="10"
     gridtolerance="10"
     guidetolerance="10"
     inkscape:pageopacity="0"
     inkscape:pageshadow="2"
     inkscape:window-width="1920"
     inkscape:window-height="1017"
     id="namedview8"
     showgrid="false"
     inkscape:zoom="50"
     inkscape:cx="8.5"
     inkscape:cy="8.5"
     inkscape:window-x="-8"
     inkscape:window-y="-8"
     inkscape:window-maximized="1"
     inkscape:current-layer="svg6" />
  <path
     d="M0.42328 15.2864C0.0849807 15.6655 0.0849807 16.2146 0.42328 16.5512C0.80408 16.932 1.35488 16.932 1.69148 16.5512L16.4084 1.85131C16.745 1.51471 16.745 0.965608 16.4084 0.583108C16.0701 0.246508 15.521 0.246508 15.1402 0.583108L0.42328 15.2864Z"
     fill="#8C8C8C"
     id="path2"
     style="fill:#ffffff;fill-opacity:1" />
  <path
     d="M15.3085 16.3829C15.6451 16.7195 16.2401 16.7195 16.5767 16.3829C16.9133 16.0463 16.9133 15.4972 16.5767 15.1164L1.86152 0.414804C1.52492 0.0782035 0.929924 0.0782035 0.593324 0.414804C0.255025 0.795604 0.255025 1.3447 0.593324 1.683L15.3085 16.3829Z"
     fill="#8C8C8C"
     id="path4"
     style="fill:#fffff9;fill-opacity:1" />
</svg>
