<?xml version="1.0" encoding="utf-8"?>
<!-- Generator: Adobe Illustrator 25.2.3, SVG Export Plug-In . SVG Version: 6.00 Build 0)  -->
<svg version="1.1" id="Слой_1" xmlns="http://www.w3.org/2000/svg" xmlns:xlink="http://www.w3.org/1999/xlink" x="0px" y="0px"
	 viewBox="0 0 34 34" style="enable-background:new 0 0 34 34;" xml:space="preserve">
<style type="text/css">
	.st0{fill:none;stroke:#FFFFFF;stroke-width:2.2;stroke-miterlimit:10;}
</style>
<path class="st0" d="M5.8,9.5c2.1,0,3.8-1.7,3.8-3.8S7.8,2,5.8,2S2,3.7,2,5.8S3.7,9.5,5.8,9.5z"/>
<path class="st0" d="M28.2,9.5c2.1,0,3.8-1.7,3.8-3.8S30.3,2,28.2,2s-3.8,1.7-3.8,3.8S26.2,9.5,28.2,9.5z"/>
<path class="st0" d="M5.8,32c2.1,0,3.8-1.7,3.8-3.8s-1.7-3.8-3.8-3.8S2,26.2,2,28.2S3.7,32,5.8,32z"/>
<path class="st0" d="M28.2,32c2.1,0,3.8-1.7,3.8-3.8s-1.7-3.8-3.8-3.8s-3.8,1.7-3.8,3.8S26.2,32,28.2,32z"/>
<line class="st0" x1="9.5" y1="5.8" x2="24.5" y2="5.8"/>
<line class="st0" x1="28.2" y1="9.5" x2="28.2" y2="24.5"/>
<line class="st0" x1="24.5" y1="28.2" x2="9.5" y2="28.2"/>
<line class="st0" x1="5.8" y1="24.5" x2="5.8" y2="9.5"/>
</svg>
