<svg width="30" height="33" viewBox="0 0 30 33" fill="none" xmlns="http://www.w3.org/2000/svg">
<path d="M2.18328 9.2408L14.8426 2.0467C14.9561 1.98443 15.0916 1.98443 15.2052 2.0467L27.8168 9.2408C27.9304 9.30674 28 9.42762 28 9.55948V23.966C28 24.0979 27.9304 24.2188 27.8168 24.2847L15.2052 31.5704C15.0916 31.6363 14.9524 31.6363 14.8389 31.5704L2.18328 24.3543C2.06973 24.2883 2.00013 24.1675 2.00013 24.0356V9.56315C1.99644 9.42762 2.06974 9.30307 2.18328 9.2408V9.2408Z" stroke="white" stroke-width="2.2" stroke-miterlimit="10" stroke-linecap="round"/>
<path d="M2.05874 9.35801L15.022 16.7939L27.9377 9.35801" stroke="white" stroke-width="2.2" stroke-miterlimit="10" stroke-linecap="round"/>
<path d="M15.0001 31.2517L15.0221 16.7939" stroke="white" stroke-width="2.2" stroke-miterlimit="10" stroke-linecap="round"/>
</svg>
