<?xml version="1.0" encoding="UTF-8" standalone="no"?>
<svg
   xmlns:dc="http://purl.org/dc/elements/1.1/"
   xmlns:cc="http://creativecommons.org/ns#"
   xmlns:rdf="http://www.w3.org/1999/02/22-rdf-syntax-ns#"
   xmlns:svg="http://www.w3.org/2000/svg"
   xmlns="http://www.w3.org/2000/svg"
   xmlns:sodipodi="http://sodipodi.sourceforge.net/DTD/sodipodi-0.dtd"
   xmlns:inkscape="http://www.inkscape.org/namespaces/inkscape"
   version="1.1"
   x="0px"
   y="0px"
   viewBox="0 0 1000 1000"
   enable-background="new 0 0 1000 1000"
   xml:space="preserve"
   id="svg8"
   sodipodi:docname="delete.svg"
   inkscape:version="1.0.1 (3bc2e813f5, 2020-09-07)"><defs
   id="defs12" /><sodipodi:namedview
   pagecolor="#ffffff"
   bordercolor="#666666"
   borderopacity="1"
   objecttolerance="10"
   gridtolerance="10"
   guidetolerance="10"
   inkscape:pageopacity="0"
   inkscape:pageshadow="2"
   inkscape:window-width="1920"
   inkscape:window-height="1017"
   id="namedview10"
   showgrid="false"
   inkscape:zoom="0.10625"
   inkscape:cx="-1656.9622"
   inkscape:cy="910.19607"
   inkscape:window-x="-8"
   inkscape:window-y="-8"
   inkscape:window-maximized="1"
   inkscape:current-layer="svg8" />
<metadata
   id="metadata2"> Svg Vector Icons : http://www.onlinewebfonts.com/icon <rdf:RDF><cc:Work
     rdf:about=""><dc:format>image/svg+xml</dc:format><dc:type
       rdf:resource="http://purl.org/dc/dcmitype/StillImage" /></cc:Work></rdf:RDF></metadata>
<g
   id="g6"
   style="stroke:#ff0000;stroke-opacity:1;fill:#ff0000;fill-opacity:1"><path
     d="M653.1,867.5c16.8,0,30.6-13.8,30.6-30.6V469.4c0-16.8-13.8-30.6-30.6-30.6c-16.8,0-30.6,13.8-30.6,30.6v367.5C622.5,853.7,636.3,867.5,653.1,867.5z M346.9,867.5c16.8,0,30.6-13.8,30.6-30.6V469.4c0-16.8-13.8-30.6-30.6-30.6s-30.6,13.8-30.6,30.6v367.5C316.3,853.7,330,867.5,346.9,867.5z M836.9,132.5H653.1V71.3c0-33.7-27.6-61.3-61.3-61.3H408.1c-33.7,0-61.3,27.6-61.3,61.3v61.3H163.1c-33.7,0-61.3,27.6-61.3,61.3V255c0,33.7,27.6,61.3,61.3,61.3v551.3c0,67.4,55.1,122.5,122.5,122.5h428.8c67.4,0,122.5-55.1,122.5-122.5V316.3c33.7,0,61.3-27.6,61.3-61.3v-61.2C898.1,160.1,870.6,132.5,836.9,132.5z M408.1,101.9c0-16.8,13.8-30.6,30.6-30.6h122.5c16.8,0,30.6,13.8,30.6,30.6v30.6c-29.9,0-183.8,0-183.8,0V101.9z M775.6,867.5c0,33.7-27.6,61.3-61.3,61.3H285.6c-33.7,0-61.3-27.6-61.3-61.3V316.3h551.3V867.5z M806.3,255H193.8c-16.8,0-30.6-13.8-30.6-30.6s13.8-30.6,30.6-30.6h612.5c16.8,0,30.6,13.8,30.6,30.6S823.1,255,806.3,255z M500,867.5c16.8,0,30.6-13.8,30.6-30.6V469.4c0-16.8-13.8-30.6-30.6-30.6s-30.6,13.8-30.6,30.6v367.5C469.4,853.7,483.2,867.5,500,867.5z"
     id="path4"
     style="stroke:#ff0000;stroke-opacity:1;fill:#ff0000;fill-opacity:1" /></g>
</svg>
