<?xml version="1.0" encoding="UTF-8" standalone="no"?>
<svg
   xmlns:dc="http://purl.org/dc/elements/1.1/"
   xmlns:cc="http://creativecommons.org/ns#"
   xmlns:rdf="http://www.w3.org/1999/02/22-rdf-syntax-ns#"
   xmlns:svg="http://www.w3.org/2000/svg"
   xmlns="http://www.w3.org/2000/svg"
   xmlns:sodipodi="http://sodipodi.sourceforge.net/DTD/sodipodi-0.dtd"
   xmlns:inkscape="http://www.inkscape.org/namespaces/inkscape"
   version="1.1"
   id="Layer_1"
   x="0px"
   y="0px"
   width="122.875px"
   height="122.648px"
   viewBox="0 0 122.875 122.648"
   enable-background="new 0 0 122.875 122.648"
   xml:space="preserve"
   sodipodi:docname="plus.svg"
   inkscape:version="1.0.1 (3bc2e813f5, 2020-09-07)"><metadata
     id="metadata11"><rdf:RDF><cc:Work
         rdf:about=""><dc:format>image/svg+xml</dc:format><dc:type
           rdf:resource="http://purl.org/dc/dcmitype/StillImage" /></cc:Work></rdf:RDF></metadata><defs
     id="defs9" /><sodipodi:namedview
     pagecolor="#ffffff"
     bordercolor="#666666"
     borderopacity="1"
     objecttolerance="10"
     gridtolerance="10"
     guidetolerance="10"
     inkscape:pageopacity="0"
     inkscape:pageshadow="2"
     inkscape:window-width="1920"
     inkscape:window-height="1017"
     id="namedview7"
     showgrid="false"
     inkscape:zoom="1.7326006"
     inkscape:cx="-90.393163"
     inkscape:cy="28.177082"
     inkscape:window-x="-8"
     inkscape:window-y="-8"
     inkscape:window-maximized="1"
     inkscape:current-layer="g4" /><g
     id="g4"
     style="fill:#0075ff;fill-opacity:1"><path
       fill-rule="evenodd"
       clip-rule="evenodd"
       d="m 93.461857,53.208372 c 5.002155,-0.03849 9.048543,3.99191 9.038123,9.004629 -0.0117,5.011415 -4.075683,9.105081 -9.077186,9.144217 l -21.936429,0.153284 -0.153001,22.001174 c -0.04102,4.969668 -4.126468,8.994194 -9.124064,8.988314 -4.9989,-0.007 -9.015988,-4.042131 -8.97497,-9.013101 L 53.386028,71.637696 31.537493,71.79098 c -5.000852,0.03914 -9.04789,-3.991911 -9.037473,-9.003978 0.01172,-5.011415 4.076336,-9.10508 9.077839,-9.143565 L 53.513637,53.489501 53.66729,31.488329 c 0.04167,-4.969669 4.126468,-8.994194 9.124064,-8.988323 4.998899,0.0058 9.015987,4.042136 8.974319,9.01311 l -0.151699,21.849192 z"
       id="path2"
       style="fill:#0075ff;fill-opacity:1;stroke-width:0.651671" /></g></svg>
